<mxfile host="app.diagrams.net" agent="Mozilla/5.0 (Windows NT 10.0; Win64; x64) AppleWebKit/537.36 (KHTML, like Gecko) Chrome/131.0.0.0 Safari/537.36" version="25.0.3">
  <diagram name="Page-1" id="0lR3Nfx8i8AdLJQTZynT">
    <mxGraphModel dx="794" dy="386" grid="1" gridSize="10" guides="1" tooltips="1" connect="1" arrows="1" fold="1" page="1" pageScale="1" pageWidth="827" pageHeight="1169" math="0" shadow="0">
      <root>
        <mxCell id="0" />
        <mxCell id="1" parent="0" />
        <mxCell id="4D9kTlraaMB5eFjH1Jv5-20" value="" style="edgeStyle=orthogonalEdgeStyle;rounded=0;orthogonalLoop=1;jettySize=auto;html=1;" parent="1" source="4D9kTlraaMB5eFjH1Jv5-1" target="4D9kTlraaMB5eFjH1Jv5-2" edge="1">
          <mxGeometry relative="1" as="geometry" />
        </mxCell>
        <mxCell id="4D9kTlraaMB5eFjH1Jv5-1" value="AC UI&amp;nbsp;" style="rounded=0;whiteSpace=wrap;html=1;fillColor=#d5e8d4;strokeColor=#82b366;" parent="1" vertex="1">
          <mxGeometry x="540" y="190" width="120" height="60" as="geometry" />
        </mxCell>
        <mxCell id="4D9kTlraaMB5eFjH1Jv5-27" value="" style="edgeStyle=orthogonalEdgeStyle;rounded=0;orthogonalLoop=1;jettySize=auto;html=1;" parent="1" source="4D9kTlraaMB5eFjH1Jv5-2" target="4D9kTlraaMB5eFjH1Jv5-9" edge="1">
          <mxGeometry relative="1" as="geometry" />
        </mxCell>
        <mxCell id="4D9kTlraaMB5eFjH1Jv5-30" value="" style="edgeStyle=orthogonalEdgeStyle;rounded=0;orthogonalLoop=1;jettySize=auto;html=1;" parent="1" source="4D9kTlraaMB5eFjH1Jv5-2" target="4D9kTlraaMB5eFjH1Jv5-29" edge="1">
          <mxGeometry relative="1" as="geometry" />
        </mxCell>
        <mxCell id="4D9kTlraaMB5eFjH1Jv5-2" value="&lt;div&gt;&lt;br&gt;&lt;/div&gt;&lt;div&gt;WSRequestHandler&lt;/div&gt;" style="rounded=1;whiteSpace=wrap;html=1;fillColor=#f8cecc;strokeColor=#b85450;" parent="1" vertex="1">
          <mxGeometry x="505" y="355" width="190" height="70" as="geometry" />
        </mxCell>
        <mxCell id="4D9kTlraaMB5eFjH1Jv5-3" value="" style="rounded=0;whiteSpace=wrap;html=1;fillColor=#dae8fc;strokeColor=#6c8ebf;" parent="1" vertex="1">
          <mxGeometry x="50" y="190" width="240" height="420" as="geometry" />
        </mxCell>
        <mxCell id="4D9kTlraaMB5eFjH1Jv5-4" value="WSCreationEvent" style="rounded=1;whiteSpace=wrap;html=1;fillColor=#f8cecc;strokeColor=#b85450;" parent="1" vertex="1">
          <mxGeometry x="67.5" y="210" width="160" height="20" as="geometry" />
        </mxCell>
        <mxCell id="4D9kTlraaMB5eFjH1Jv5-5" value="WSModifyEvent" style="rounded=1;whiteSpace=wrap;html=1;fillColor=#f8cecc;strokeColor=#b85450;" parent="1" vertex="1">
          <mxGeometry x="62.5" y="240" width="170" height="20" as="geometry" />
        </mxCell>
        <mxCell id="4D9kTlraaMB5eFjH1Jv5-6" value="WSsListedEvent" style="rounded=1;whiteSpace=wrap;html=1;fillColor=#f8cecc;strokeColor=#b85450;" parent="1" vertex="1">
          <mxGeometry x="62.5" y="270" width="150" height="20" as="geometry" />
        </mxCell>
        <mxCell id="4D9kTlraaMB5eFjH1Jv5-8" value="WSListRequestedEvent" style="rounded=1;whiteSpace=wrap;html=1;fillColor=#f8cecc;strokeColor=#b85450;" parent="1" vertex="1">
          <mxGeometry x="55" y="300" width="210" height="20" as="geometry" />
        </mxCell>
        <mxCell id="4D9kTlraaMB5eFjH1Jv5-19" value="" style="edgeStyle=orthogonalEdgeStyle;rounded=0;orthogonalLoop=1;jettySize=auto;html=1;entryX=1;entryY=0.5;entryDx=0;entryDy=0;" parent="1" source="4D9kTlraaMB5eFjH1Jv5-9" target="4D9kTlraaMB5eFjH1Jv5-3" edge="1">
          <mxGeometry relative="1" as="geometry">
            <mxPoint x="310" y="390" as="targetPoint" />
            <Array as="points" />
          </mxGeometry>
        </mxCell>
        <mxCell id="4D9kTlraaMB5eFjH1Jv5-9" value="Handle Event&lt;div&gt;Register&amp;nbsp;&lt;/div&gt;&lt;div&gt;user event&amp;nbsp;&amp;nbsp;&lt;/div&gt;" style="rhombus;whiteSpace=wrap;html=1;fillColor=#dae8fc;strokeColor=#6c8ebf;" parent="1" vertex="1">
          <mxGeometry x="330" y="350" width="140" height="80" as="geometry" />
        </mxCell>
        <mxCell id="4D9kTlraaMB5eFjH1Jv5-13" value="WSsRequestedEvent" style="rounded=0;whiteSpace=wrap;html=1;fillColor=#f8cecc;strokeColor=#b85450;" parent="1" vertex="1">
          <mxGeometry x="55" y="330" width="220" height="20" as="geometry" />
        </mxCell>
        <mxCell id="4D9kTlraaMB5eFjH1Jv5-14" value="WSsSelectionEvent" style="rounded=0;whiteSpace=wrap;html=1;fillColor=#f8cecc;strokeColor=#b85450;" parent="1" vertex="1">
          <mxGeometry x="55" y="355" width="220" height="20" as="geometry" />
        </mxCell>
        <mxCell id="4D9kTlraaMB5eFjH1Jv5-16" value="WSFilterChangeRequestedEvent" style="rounded=0;whiteSpace=wrap;html=1;fillColor=#f8cecc;strokeColor=#b85450;" parent="1" vertex="1">
          <mxGeometry x="50" y="405" width="220" height="20" as="geometry" />
        </mxCell>
        <mxCell id="4D9kTlraaMB5eFjH1Jv5-17" value="MOsAttachedToWSListedEvent" style="rounded=0;whiteSpace=wrap;html=1;fillColor=#f8cecc;strokeColor=#b85450;" parent="1" vertex="1">
          <mxGeometry x="50" y="380" width="220" height="20" as="geometry" />
        </mxCell>
        <mxCell id="4D9kTlraaMB5eFjH1Jv5-18" value="MOsAttachedToMRListRequestedEvent" style="rounded=0;whiteSpace=wrap;html=1;fillColor=#f8cecc;strokeColor=#b85450;" parent="1" vertex="1">
          <mxGeometry x="50" y="430" width="220" height="20" as="geometry" />
        </mxCell>
        <mxCell id="4D9kTlraaMB5eFjH1Jv5-26" value="Event&amp;nbsp;" style="rounded=0;whiteSpace=wrap;html=1;fillColor=#fff2cc;strokeColor=#d6b656;" parent="1" vertex="1">
          <mxGeometry x="87.5" y="160" width="102.5" height="40" as="geometry" />
        </mxCell>
        <mxCell id="4D9kTlraaMB5eFjH1Jv5-48" value="" style="edgeStyle=orthogonalEdgeStyle;rounded=0;orthogonalLoop=1;jettySize=auto;html=1;" parent="1" source="4D9kTlraaMB5eFjH1Jv5-29" target="4D9kTlraaMB5eFjH1Jv5-33" edge="1">
          <mxGeometry relative="1" as="geometry">
            <Array as="points">
              <mxPoint x="600" y="610" />
              <mxPoint x="600" y="610" />
            </Array>
          </mxGeometry>
        </mxCell>
        <mxCell id="4D9kTlraaMB5eFjH1Jv5-29" value="myTaskMgr.runTask( type of event , true );&amp;nbsp;" style="rounded=0;whiteSpace=wrap;html=1;fillColor=#dae8fc;strokeColor=#6c8ebf;" parent="1" vertex="1">
          <mxGeometry x="540" y="470" width="120" height="60" as="geometry" />
        </mxCell>
        <mxCell id="4D9kTlraaMB5eFjH1Jv5-33" value="" style="rounded=0;whiteSpace=wrap;html=1;fillColor=#dae8fc;strokeColor=#6c8ebf;" parent="1" vertex="1">
          <mxGeometry x="55" y="670" width="825" height="80" as="geometry" />
        </mxCell>
        <mxCell id="4D9kTlraaMB5eFjH1Jv5-34" value="WSListingTask" style="rounded=0;whiteSpace=wrap;html=1;fillColor=#f8cecc;strokeColor=#b85450;" parent="1" vertex="1">
          <mxGeometry x="60" y="680" width="100" height="40" as="geometry" />
        </mxCell>
        <mxCell id="4D9kTlraaMB5eFjH1Jv5-35" value="WSCreationTask" style="rounded=0;whiteSpace=wrap;html=1;fillColor=#f8cecc;strokeColor=#b85450;" parent="1" vertex="1">
          <mxGeometry x="175" y="680" width="100" height="40" as="geometry" />
        </mxCell>
        <mxCell id="4D9kTlraaMB5eFjH1Jv5-36" value="WSModifyTask" style="rounded=0;whiteSpace=wrap;html=1;fillColor=#f8cecc;strokeColor=#b85450;" parent="1" vertex="1">
          <mxGeometry x="280" y="680" width="90" height="40" as="geometry" />
        </mxCell>
        <mxCell id="4D9kTlraaMB5eFjH1Jv5-37" value="DeleteWorkingSetsTask" style="rounded=0;whiteSpace=wrap;html=1;fillColor=#f8cecc;strokeColor=#b85450;" parent="1" vertex="1">
          <mxGeometry x="380" y="680" width="120" height="40" as="geometry" />
        </mxCell>
        <mxCell id="4D9kTlraaMB5eFjH1Jv5-38" value="StaticWSListingTask" style="rounded=0;whiteSpace=wrap;html=1;fillColor=#f8cecc;strokeColor=#b85450;" parent="1" vertex="1">
          <mxGeometry x="685" y="680" width="165" height="40" as="geometry" />
        </mxCell>
        <mxCell id="4D9kTlraaMB5eFjH1Jv5-40" value="AddMOsToExistingWSsTask" style="rounded=0;whiteSpace=wrap;html=1;fillColor=#f8cecc;strokeColor=#b85450;" parent="1" vertex="1">
          <mxGeometry x="510" y="680" width="165" height="40" as="geometry" />
        </mxCell>
        <mxCell id="4D9kTlraaMB5eFjH1Jv5-47" value="" style="endArrow=none;dashed=1;html=1;rounded=0;" parent="1" edge="1">
          <mxGeometry width="50" height="50" relative="1" as="geometry">
            <mxPoint x="1550" y="689.5" as="sourcePoint" />
            <mxPoint x="1610" y="689.5" as="targetPoint" />
          </mxGeometry>
        </mxCell>
        <mxCell id="4D9kTlraaMB5eFjH1Jv5-52" value="" style="endArrow=classic;html=1;rounded=0;" parent="1" target="4D9kTlraaMB5eFjH1Jv5-49" edge="1">
          <mxGeometry width="50" height="50" relative="1" as="geometry">
            <mxPoint x="600" y="760" as="sourcePoint" />
            <mxPoint x="540" y="800" as="targetPoint" />
            <Array as="points" />
          </mxGeometry>
        </mxCell>
        <mxCell id="4D9kTlraaMB5eFjH1Jv5-55" value="" style="edgeStyle=orthogonalEdgeStyle;rounded=0;orthogonalLoop=1;jettySize=auto;html=1;" parent="1" source="4D9kTlraaMB5eFjH1Jv5-49" target="4D9kTlraaMB5eFjH1Jv5-53" edge="1">
          <mxGeometry relative="1" as="geometry" />
        </mxCell>
        <mxCell id="4D9kTlraaMB5eFjH1Jv5-57" value="" style="edgeStyle=orthogonalEdgeStyle;rounded=0;orthogonalLoop=1;jettySize=auto;html=1;" parent="1" source="4D9kTlraaMB5eFjH1Jv5-49" target="4D9kTlraaMB5eFjH1Jv5-56" edge="1">
          <mxGeometry relative="1" as="geometry" />
        </mxCell>
        <mxCell id="4D9kTlraaMB5eFjH1Jv5-49" value="runTask()" style="rounded=1;whiteSpace=wrap;html=1;fillColor=#dae8fc;strokeColor=#6c8ebf;" parent="1" vertex="1">
          <mxGeometry x="540" y="800" width="120" height="60" as="geometry" />
        </mxCell>
        <mxCell id="4D9kTlraaMB5eFjH1Jv5-53" value="EJB&amp;nbsp;&lt;div&gt;WorkingSetAdminBean&lt;/div&gt;" style="rounded=1;whiteSpace=wrap;html=1;fillColor=#f8cecc;strokeColor=#b85450;" parent="1" vertex="1">
          <mxGeometry x="510" y="920" width="180" height="60" as="geometry" />
        </mxCell>
        <mxCell id="4D9kTlraaMB5eFjH1Jv5-59" value="" style="edgeStyle=orthogonalEdgeStyle;rounded=0;orthogonalLoop=1;jettySize=auto;html=1;" parent="1" source="4D9kTlraaMB5eFjH1Jv5-56" target="4D9kTlraaMB5eFjH1Jv5-58" edge="1">
          <mxGeometry relative="1" as="geometry" />
        </mxCell>
        <mxCell id="4D9kTlraaMB5eFjH1Jv5-56" value="&amp;nbsp;fire( event )" style="rounded=0;whiteSpace=wrap;html=1;fillColor=#dae8fc;strokeColor=#6c8ebf;" parent="1" vertex="1">
          <mxGeometry x="750" y="800" width="120" height="60" as="geometry" />
        </mxCell>
        <mxCell id="4D9kTlraaMB5eFjH1Jv5-64" value="" style="edgeStyle=orthogonalEdgeStyle;rounded=0;orthogonalLoop=1;jettySize=auto;html=1;" parent="1" source="4D9kTlraaMB5eFjH1Jv5-58" target="4D9kTlraaMB5eFjH1Jv5-63" edge="1">
          <mxGeometry relative="1" as="geometry" />
        </mxCell>
        <mxCell id="4D9kTlraaMB5eFjH1Jv5-58" value="EventManagerImpl&lt;div&gt;fire( final EventListener sender, final Event event )&lt;/div&gt;" style="rounded=0;whiteSpace=wrap;html=1;fillColor=#f8cecc;strokeColor=#b85450;" parent="1" vertex="1">
          <mxGeometry x="992.5" y="785" width="220" height="90" as="geometry" />
        </mxCell>
        <mxCell id="4D9kTlraaMB5eFjH1Jv5-60" value="&lt;div style=&quot;&quot;&gt;handleEvent( Event event ){&lt;/div&gt;&lt;div style=&quot;&quot;&gt;&lt;br&gt;&lt;/div&gt;&lt;div style=&quot;&quot;&gt;populate( e.getMaintenanceRegions()}&amp;nbsp;&lt;/div&gt;" style="rounded=0;whiteSpace=wrap;html=1;align=center;fillColor=#dae8fc;strokeColor=#6c8ebf;" parent="1" vertex="1">
          <mxGeometry x="1145" y="150" width="220" height="50" as="geometry" />
        </mxCell>
        <mxCell id="4D9kTlraaMB5eFjH1Jv5-62" value="" style="edgeStyle=orthogonalEdgeStyle;rounded=0;orthogonalLoop=1;jettySize=auto;html=1;" parent="1" source="4D9kTlraaMB5eFjH1Jv5-61" target="4D9kTlraaMB5eFjH1Jv5-60" edge="1">
          <mxGeometry relative="1" as="geometry" />
        </mxCell>
        <mxCell id="4D9kTlraaMB5eFjH1Jv5-72" style="edgeStyle=orthogonalEdgeStyle;rounded=0;orthogonalLoop=1;jettySize=auto;html=1;exitX=0.045;exitY=-0.009;exitDx=0;exitDy=0;exitPerimeter=0;" parent="1" source="4D9kTlraaMB5eFjH1Jv5-61" edge="1">
          <mxGeometry relative="1" as="geometry">
            <mxPoint x="643" y="250" as="targetPoint" />
            <mxPoint x="1170" y="318.75" as="sourcePoint" />
            <Array as="points">
              <mxPoint x="1169" y="306" />
              <mxPoint x="644" y="306" />
            </Array>
          </mxGeometry>
        </mxCell>
        <mxCell id="4D9kTlraaMB5eFjH1Jv5-61" value="MRsController" style="rounded=0;whiteSpace=wrap;html=1;align=center;fillColor=#f8cecc;strokeColor=#b85450;" parent="1" vertex="1">
          <mxGeometry x="1160" y="350" width="192.5" height="75" as="geometry" />
        </mxCell>
        <mxCell id="4D9kTlraaMB5eFjH1Jv5-65" value="" style="edgeStyle=orthogonalEdgeStyle;rounded=0;orthogonalLoop=1;jettySize=auto;html=1;entryX=1;entryY=0.5;entryDx=0;entryDy=0;exitX=1;exitY=0.25;exitDx=0;exitDy=0;" parent="1" target="4D9kTlraaMB5eFjH1Jv5-61" edge="1" source="4D9kTlraaMB5eFjH1Jv5-63">
          <mxGeometry relative="1" as="geometry">
            <mxPoint x="1620" y="820" as="sourcePoint" />
            <mxPoint x="1447.25" y="390" as="targetPoint" />
            <Array as="points">
              <mxPoint x="1520" y="820" />
              <mxPoint x="1641" y="820" />
              <mxPoint x="1641" y="750" />
              <mxPoint x="1643" y="750" />
              <mxPoint x="1643" y="388" />
            </Array>
          </mxGeometry>
        </mxCell>
        <mxCell id="4D9kTlraaMB5eFjH1Jv5-63" value="istener.handleEvent( event )" style="rounded=0;whiteSpace=wrap;html=1;fillColor=#dae8fc;strokeColor=#6c8ebf;" parent="1" vertex="1">
          <mxGeometry x="1270" y="790" width="250" height="60" as="geometry" />
        </mxCell>
        <mxCell id="4D9kTlraaMB5eFjH1Jv5-73" value="Working Set" style="text;html=1;align=center;verticalAlign=middle;whiteSpace=wrap;rounded=0;fillColor=#e1d5e7;strokeColor=#9673a6;" parent="1" vertex="1">
          <mxGeometry x="530" y="10" width="180" height="30" as="geometry" />
        </mxCell>
        <mxCell id="4D9kTlraaMB5eFjH1Jv5-74" value="UI" style="rounded=0;whiteSpace=wrap;html=1;fillColor=#d5e8d4;strokeColor=#82b366;" parent="1" vertex="1">
          <mxGeometry x="87.5" y="90" width="105" height="20" as="geometry" />
        </mxCell>
        <mxCell id="4D9kTlraaMB5eFjH1Jv5-78" value="Class&amp;nbsp;" style="rounded=0;whiteSpace=wrap;html=1;fillColor=#f8cecc;strokeColor=#b85450;" parent="1" vertex="1">
          <mxGeometry x="87.5" y="30" width="105" height="20" as="geometry" />
        </mxCell>
        <mxCell id="4D9kTlraaMB5eFjH1Jv5-79" value="method&amp;nbsp;" style="rounded=0;whiteSpace=wrap;html=1;fillColor=#dae8fc;strokeColor=#6c8ebf;" parent="1" vertex="1">
          <mxGeometry x="87.5" y="60" width="105" height="20" as="geometry" />
        </mxCell>
        <mxCell id="4D9kTlraaMB5eFjH1Jv5-80" style="edgeStyle=orthogonalEdgeStyle;rounded=0;orthogonalLoop=1;jettySize=auto;html=1;exitX=0.5;exitY=0;exitDx=0;exitDy=0;entryX=0.373;entryY=-0.367;entryDx=0;entryDy=0;entryPerimeter=0;" parent="1" source="4D9kTlraaMB5eFjH1Jv5-74" target="4D9kTlraaMB5eFjH1Jv5-74" edge="1">
          <mxGeometry relative="1" as="geometry" />
        </mxCell>
        <mxCell id="4D9kTlraaMB5eFjH1Jv5-82" value="package&amp;nbsp;" style="rounded=0;whiteSpace=wrap;html=1;fillColor=#fff2cc;strokeColor=#d6b656;" parent="1" vertex="1">
          <mxGeometry x="90" y="120" width="100" height="30" as="geometry" />
        </mxCell>
        <mxCell id="4D9kTlraaMB5eFjH1Jv5-83" value="Task&amp;nbsp;" style="rounded=0;whiteSpace=wrap;html=1;fillColor=#fff2cc;strokeColor=#d6b656;" parent="1" vertex="1">
          <mxGeometry x="70" y="640" width="120" height="35" as="geometry" />
        </mxCell>
        <mxCell id="kuIIzH7IL2QeGE5PSzX6-3" value="Filter&amp;nbsp;" style="rounded=0;whiteSpace=wrap;html=1;fillColor=#dae8fc;strokeColor=#6c8ebf;" vertex="1" parent="1">
          <mxGeometry x="50" y="460" width="240" height="170" as="geometry" />
        </mxCell>
        <mxCell id="kuIIzH7IL2QeGE5PSzX6-4" value="WSFilterChangeRequestedEvent" style="rounded=0;whiteSpace=wrap;html=1;fillColor=#f8cecc;strokeColor=#b85450;" vertex="1" parent="1">
          <mxGeometry x="55" y="500" width="185" height="20" as="geometry" />
        </mxCell>
        <mxCell id="kuIIzH7IL2QeGE5PSzX6-5" value="WSFilterCheckedEvent" style="rounded=0;whiteSpace=wrap;html=1;fillColor=#f8cecc;strokeColor=#b85450;" vertex="1" parent="1">
          <mxGeometry x="55" y="530" width="185" height="20" as="geometry" />
        </mxCell>
        <mxCell id="kuIIzH7IL2QeGE5PSzX6-6" value="SelectWSController" style="rounded=0;whiteSpace=wrap;html=1;fillColor=#f8cecc;strokeColor=#b85450;" vertex="1" parent="1">
          <mxGeometry x="57.5" y="560" width="182.5" height="20" as="geometry" />
        </mxCell>
        <mxCell id="kuIIzH7IL2QeGE5PSzX6-7" value="WSFilterPlansCheckingTask" style="rounded=0;whiteSpace=wrap;html=1;fillColor=#f8cecc;strokeColor=#b85450;" vertex="1" parent="1">
          <mxGeometry x="60" y="585" width="180" height="20" as="geometry" />
        </mxCell>
        <mxCell id="kuIIzH7IL2QeGE5PSzX6-8" value="Filter&amp;nbsp;" style="rounded=0;whiteSpace=wrap;html=1;fillColor=#fff2cc;strokeColor=#d6b656;" vertex="1" parent="1">
          <mxGeometry x="88.75" y="450" width="101.25" height="40" as="geometry" />
        </mxCell>
        <mxCell id="kuIIzH7IL2QeGE5PSzX6-9" value="" style="endArrow=none;dashed=1;html=1;dashPattern=1 3;strokeWidth=2;rounded=0;" edge="1" parent="1">
          <mxGeometry width="50" height="50" relative="1" as="geometry">
            <mxPoint x="87.5" y="620" as="sourcePoint" />
            <mxPoint x="157.5" y="620" as="targetPoint" />
            <Array as="points">
              <mxPoint x="107.5" y="620" />
            </Array>
          </mxGeometry>
        </mxCell>
      </root>
    </mxGraphModel>
  </diagram>
</mxfile>
